<svg width="24" height="24" viewBox="0 0 24 24" fill="none" xmlns="http://www.w3.org/2000/svg">
<path d="M21 5.60241C21 5.20458 20.842 4.82305 20.5607 4.54175C20.2794 4.26044 19.8978 4.10241 19.5 4.10241H11.6175C11.5677 3.8451 11.4279 3.61394 11.2231 3.45038C11.0183 3.28682 10.762 3.20157 10.5 3.20991H7.59C7.32972 3.21022 7.07805 3.30325 6.88014 3.4723C6.68223 3.64135 6.551 3.87537 6.51 4.13241C6.50277 4.19219 6.50277 4.25263 6.51 4.31241V11.2799C6.50986 11.3572 6.53458 11.4324 6.5805 11.4945C6.62642 11.5567 6.6911 11.6024 6.765 11.6249H6.8775C6.93477 11.6256 6.99134 11.6122 7.04231 11.5861C7.09327 11.56 7.1371 11.5218 7.17 11.4749L8.91 9.16491C8.92667 9.14168 8.94862 9.12276 8.97405 9.1097C8.99949 9.09665 9.02766 9.08984 9.05625 9.08984C9.08484 9.08984 9.11301 9.09665 9.13844 9.1097C9.16388 9.12276 9.18584 9.14168 9.2025 9.16491L10.9725 11.5124C11.0188 11.5733 11.083 11.6182 11.156 11.6409C11.2291 11.6636 11.3074 11.6629 11.3801 11.639C11.4527 11.6151 11.5161 11.569 11.5613 11.5074C11.6066 11.4457 11.6315 11.3714 11.6325 11.2949V5.78991C11.6325 5.74018 11.6523 5.69249 11.6874 5.65733C11.7226 5.62216 11.7703 5.60241 11.82 5.60241H19.155C19.2545 5.60241 19.3498 5.64192 19.4202 5.71224C19.4905 5.78257 19.53 5.87795 19.53 5.97741V19.1849C19.53 19.2844 19.4905 19.3797 19.4202 19.4501C19.3498 19.5204 19.2545 19.5599 19.155 19.5599H4.845C4.74554 19.5599 4.65016 19.5204 4.57983 19.4501C4.50951 19.3797 4.47 19.2844 4.47 19.1849V5.78241C4.47 5.73467 4.48896 5.68889 4.52272 5.65513C4.55648 5.62137 4.60226 5.60241 4.65 5.60241C4.84891 5.60241 5.03968 5.52339 5.18033 5.38274C5.32098 5.24209 5.4 5.05132 5.4 4.85241C5.4 4.6535 5.32098 4.46273 5.18033 4.32208C5.03968 4.18143 4.84891 4.10241 4.65 4.10241H4.5C4.10218 4.10241 3.72064 4.26044 3.43934 4.54175C3.15804 4.82305 3 5.20458 3 5.60241L3 19.5299C3 19.9277 3.15804 20.3093 3.43934 20.5906C3.72064 20.8719 4.10218 21.0299 4.5 21.0299H19.5C19.8978 21.0299 20.2794 20.8719 20.5607 20.5906C20.842 20.3093 21 19.9277 21 19.5299V5.60241Z" fill="black"/>
<path d="M13.8375 8.72241H16.7775C16.9764 8.72241 17.1672 8.64339 17.3078 8.50274C17.4485 8.36209 17.5275 8.17132 17.5275 7.97241C17.5275 7.7735 17.4485 7.58273 17.3078 7.44208C17.1672 7.30143 16.9764 7.22241 16.7775 7.22241H13.8375C13.6386 7.22241 13.4478 7.30143 13.3072 7.44208C13.1665 7.58273 13.0875 7.7735 13.0875 7.97241C13.0875 8.17132 13.1665 8.36209 13.3072 8.50274C13.4478 8.64339 13.6386 8.72241 13.8375 8.72241ZM13.8375 11.6624H16.7775C16.9764 11.6624 17.1672 11.5834 17.3078 11.4427C17.4485 11.3021 17.5275 11.1113 17.5275 10.9124C17.5275 10.7135 17.4485 10.5227 17.3078 10.3821C17.1672 10.2414 16.9764 10.1624 16.7775 10.1624H13.8375C13.6386 10.1624 13.4478 10.2414 13.3072 10.3821C13.1665 10.5227 13.0875 10.7135 13.0875 10.9124C13.0875 11.1113 13.1665 11.3021 13.3072 11.4427C13.4478 11.5834 13.6386 11.6624 13.8375 11.6624ZM16.7775 13.1324H7.59C7.39108 13.1324 7.20032 13.2114 7.05967 13.3521C6.91901 13.4927 6.84 13.6835 6.84 13.8824C6.84 14.0813 6.91901 14.2721 7.05967 14.4127C7.20032 14.5534 7.39108 14.6324 7.59 14.6324H16.7775C16.9764 14.6324 17.1672 14.5534 17.3078 14.4127C17.4485 14.2721 17.5275 14.0813 17.5275 13.8824C17.5275 13.6835 17.4485 13.4927 17.3078 13.3521C17.1672 13.2114 16.9764 13.1324 16.7775 13.1324ZM16.0425 16.8074C16.0425 16.6085 15.9635 16.4177 15.8228 16.2771C15.6822 16.1364 15.4914 16.0574 15.2925 16.0574H7.59C7.39108 16.0574 7.20032 16.1364 7.05967 16.2771C6.91901 16.4177 6.84 16.6085 6.84 16.8074C6.84 17.0063 6.91901 17.1971 7.05967 17.3377C7.20032 17.4784 7.39108 17.5574 7.59 17.5574H15.3075C15.5038 17.5535 15.6907 17.4727 15.8282 17.3325C15.9656 17.1923 16.0425 17.0038 16.0425 16.8074Z" fill="black"/>
</svg>
