<svg width="24" height="24" viewBox="0 0 24 24" fill="none" xmlns="http://www.w3.org/2000/svg">
<path d="M12 2.99951C8.55992 2.99951 5.76892 5.65594 5.76892 8.92769C5.76892 12.6923 9.92297 18.6581 11.4483 20.7187C11.5116 20.8057 11.5946 20.8765 11.6905 20.9253C11.7864 20.9741 11.8924 20.9995 12 20.9995C12.1076 20.9995 12.2136 20.9741 12.3095 20.9253C12.4054 20.8765 12.4884 20.8057 12.5517 20.7187C14.077 18.659 18.2311 12.6953 18.2311 8.92769C18.2311 5.65594 15.4401 2.99951 12 2.99951Z" stroke="black" stroke-width="1.38468" stroke-linecap="round" stroke-linejoin="round"/>
<path d="M12 11.3076C13.1471 11.3076 14.077 10.3777 14.077 9.23059C14.077 8.08348 13.1471 7.15356 12 7.15356C10.8529 7.15356 9.92297 8.08348 9.92297 9.23059C9.92297 10.3777 10.8529 11.3076 12 11.3076Z" stroke="black" stroke-width="1.38468" stroke-linecap="round" stroke-linejoin="round"/>
</svg>
