<svg width="24" height="24" viewBox="0 0 24 24" fill="none" xmlns="http://www.w3.org/2000/svg">
<path d="M3.873 15.708L6.45 12.248C6.53133 12.1407 6.62966 12.06 6.745 12.006C6.85966 11.952 6.978 11.925 7.1 11.925C7.222 11.925 7.33766 11.9517 7.447 12.005C7.557 12.0597 7.65533 12.1407 7.742 12.248L10.258 15.6C10.3593 15.7333 10.4773 15.8333 10.612 15.9C10.7467 15.9667 10.8983 16 11.067 16C11.489 16 11.792 15.8127 11.976 15.438C12.16 15.0633 12.127 14.709 11.877 14.375L10.834 12.985C10.7267 12.8357 10.673 12.673 10.673 12.497C10.673 12.321 10.727 12.1603 10.835 12.015L13.45 8.51701C13.5313 8.40967 13.6297 8.32901 13.745 8.27501C13.8597 8.22167 13.978 8.19501 14.1 8.19501C14.222 8.19501 14.3377 8.22167 14.447 8.27501C14.5563 8.32834 14.6547 8.40901 14.742 8.51701L20.127 15.707C20.3257 15.977 20.3513 16.26 20.204 16.556C20.0567 16.852 19.8157 17 19.481 17H4.529C4.18233 17 3.93666 16.852 3.792 16.556C3.64733 16.26 3.67433 15.9773 3.873 15.708Z" fill="black"/>
</svg>
